<?xml version="1.0" standalone="no"?>
<svg version="1.1" xmlns="http://www.w3.org/2000/svg" xmlns:xlink="http://www.w3.org/1999/xlink" x="0px" y="0px" viewBox="0 0 595.276 595.276" enable-background="new 0 0 595.276 595.276" xml:space="preserve">
<g id="Layer_1">
	<path id="color_x5F_6" fill="#E65100" d="M181.317,194.015c2.154-0.394,4.272-0.773,6.345-1.134
		c-0.737,1.711-1.921,3.256-3.146,4.685c-0.972,1.133-2.036,2.257-3.198,3.221V194.015z M151.882,214.279
		c-1.159-0.602-1.958-1.812-1.958-3.202v-2.516c0-1.984,1.623-3.607,3.607-3.607c1.984,0,3.607,1.623,3.607,3.607v1.426h2.009
		l2.34-11.847l0.854-0.439c-5.385,1.102-10.572,2.21-15.237,3.255c0.852,6.556,2.533,13.003,5.002,19.136l0.198-2.345
		C152.038,216.631,151.882,215.474,151.882,214.279z"></path>
	<path id="color_x5F_5" fill="#d7ebab" d="M215.464,277.559c13.796-0.222,30.542-1.156,42.027-0.819c0,0.012,0,0.024,0,0.036
		c3.04-0.317,6.095-0.055,9.008,0.756c3.366,0.12,6.873,2.27,9.08,4.698c0.338,0.372-0.147,0.962-0.533,0.731
		c-1.711-1.027-3.468-1.996-5.343-2.622c-0.034-0.011-0.068-0.02-0.102-0.03c0.026,0.131,0.052,0.262,0.071,0.39
		c2.167,0.663,4.24,1.996,5.834,3.519h-2.442c-0.877-0.443-1.774-0.837-2.701-1.146c-0.233-0.078-0.468-0.145-0.704-0.207
		c-0.001,0.004-0.002,0.008-0.002,0.012c0.874,0.352,1.71,0.821,2.506,1.34h-29.286c-5.682,0-10.45,3.935-11.757,9.219
		c-5.743,1.474-11.557,2.662-17.419,3.531C214.95,290.597,216.308,283.85,215.464,277.559z M131.439,494.64l-9.835-8.447
		l-1.539,2.16l-2.294,3.221l4.439,3.402c1.043,0.8,2.309,1.255,3.623,1.303l3.814,0.14l0.059-0.059L131.439,494.64z
		 M151.735,515.225l5.584-0.311c1.312-0.073,2.569-0.552,3.597-1.372l2.984-2.378l0.2-2.518h-12.964l0.317,3.485L151.735,515.225z
		 M164.893,242.081l2.095,0.177l0.687-8.149l0.415-4.928h0.657h0.981h0.846c5.933,0,10.743-4.81,10.743-10.743v-17.651v-6.772
		c-6.25,1.144-12.737,2.408-18.976,3.685l-0.854,0.439l-2.34,11.847h-2.009v-1.426c0-1.984-1.623-3.607-3.607-3.607
		c-1.984,0-3.607,1.623-3.607,3.607v2.516c0,1.39,0.798,2.6,1.958,3.202c0,1.196,0.156,2.353,0.422,3.467l-0.198,2.345l-0.811,9.625
		l-0.149,1.772C156.391,233.969,160.871,237.78,164.893,242.081z M122.339,347.195c-2.352,3.563-1.253,7.154,0.416,10.972
		c-0.14,1.972-0.642,3.914-1.211,5.827c-0.128,0.431,0.564,0.754,0.84,0.334c1.051-1.598,1.9-3.601,2.285-5.645
		c0.11,0.022,0.219,0.042,0.327,0.06c-0.004,0.107-0.005,0.215-0.012,0.322c-0.14,1.972-0.642,3.914-1.211,5.827
		c-0.128,0.431,0.564,0.754,0.84,0.334c1.176-1.788,2.099-4.084,2.401-6.377c0.004,0,0.008-0.001,0.013-0.001
		c-0.001,0.244-0.008,0.489-0.025,0.734c-0.14,1.972-0.642,3.914-1.211,5.827c-0.128,0.431,0.564,0.754,0.84,0.334
		c1.355-2.06,2.378-4.793,2.498-7.42c0.119-0.051,0.24-0.108,0.36-0.166c-0.002,0.035-0.002,0.071-0.004,0.106
		c-0.14,1.972-0.642,3.914-1.211,5.827c-0.128,0.431,0.564,0.754,0.84,0.334c1.803-2.742,3.014-6.673,2.292-9.963
		c0.061-3.023-0.445-6.047-1.508-8.913c0.012-0.003,0.023-0.006,0.035-0.009c-2.531-11.208-7.601-27.196-11.246-40.503
		c-5.883,2.383-12.756,2.745-19.236,3.12C105.318,322.092,113.069,335.24,122.339,347.195z"></path>
	<path id="color_x5F_4" fill="#434443" d="M515.932,531.943c0,1.968-1.595,3.562-3.562,3.562H61.715
		c-1.968,0-3.563-1.595-3.563-3.562s1.595-3.563,3.563-3.563h19.897h5.757h3.489h2.574h3.201h1.129h3.153h7.183h3.049h5.906h3.159
		h4.67h3.339h5.19h3.283h9.064h0.919c0.131,0.64,0.68,1.135,1.371,1.135h42.554c0.608,0,1.018-0.579,0.869-1.135h212.624h5.757
		h3.489h2.574h3.201h1.129h3.153h7.183h3.049h5.906h3.159h4.67h3.339h5.19h3.283h9.064h44.125
		C514.337,528.381,515.932,529.976,515.932,531.943z M105.664,500.013l3.7,3.178l2.761,2.371l8.827,7.582l2.58,2.216l5.233,4.494
		l2.411,2.071l3.492,2.999l2.504,2.15l0.774,0.665c0.51,0.438,1.303,0.186,1.467-0.466l0.487-1.941
		c0.432-1.721,0.35-3.505-0.2-5.147c-0.327-0.977-0.82-1.904-1.471-2.735l-0.53-0.678l-2.616-3.345l-0.888-1.136
		c-0.411-0.525-0.828-1.077-1.232-1.65c-1.652-2.341-3.075-5.032-2.858-7.752l0.563-6.433l-0.982-0.036l-0.038-0.001l-3.814-0.14
		c-1.313-0.048-2.579-0.504-3.623-1.303l-4.439-3.402l-1.003-0.769c0,0-1.216,0.562-2.921,1.486
		c-0.986,0.534-2.131,1.19-3.311,1.934c-1.719,1.083-3.496,2.346-4.91,3.684C105.014,498.488,105.025,499.464,105.664,500.013z
		 M190.518,526.417c-1.265-2.531-3.629-4.336-6.403-4.891l-6.422-1.284c-3.33-0.666-7.228-1.724-9.229-4.467l-3.764-5.247
		l-0.798,0.636l-2.984,2.378c-1.028,0.819-2.285,1.299-3.597,1.372l-5.584,0.311l-1.262,0.07c0,0-2.91,6.357-3.707,11.755
		c-0.044,0.3-0.086,0.6-0.116,0.893c-0.016,0.151,0,0.297,0.029,0.438c0.131,0.64,0.68,1.135,1.371,1.135h42.554
		c0.608,0,1.018-0.579,0.869-1.135c-0.016-0.058-0.032-0.117-0.06-0.174L190.518,526.417z"></path>
	<path id="color_x5F_3" fill="#0b241c" d="M120.453,485.204c0.145-0.31,0.3-0.629,0.451-0.944c1.728-3.611,3.843-7.584,6.255-11.707
		c1.644-2.81,3.425-5.687,5.313-8.563c6.081-9.264,13.27-18.497,20.567-25.375c0.3-1.931,0.482-3.881,0.561-5.846
		c0.013-0.316,0.04-0.63,0.047-0.948c0.621-26.424-16.83-55.693-15.832-82.732c14.194,6.511,41.801,2.091,49.638-7.587
		l-0.252,32.992l-0.005,0.596l-0.378,49.502c-0.485,9.735-4.806,18.87-12.001,25.42c-0.155,0.141-0.304,0.289-0.462,0.428
		c-0.029,0.026-0.061,0.055-0.09,0.081c-0.926,0.817-1.918,1.739-2.959,2.74c-3.309,18.294-4.693,36.572-5.94,55.386h-1.264h-12.964
		h-1.503h-0.015c-0.784-2.811-1.443-5.69-2-8.607c-0.374-1.957-0.699-3.932-0.968-5.923c-0.209-1.548-0.397-3.102-0.541-4.664
		c-0.19-2.059-0.307-4.128-0.382-6.199c-0.028-0.767-0.057-1.533-0.068-2.3c-5.171,5.805-9.874,11.057-13.261,14.51l-0.959-0.823
		l-9.835-8.447l-0.942-0.809L120.453,485.204z M273.065,284.216h2.442h162.208c6.685,0,12.123,5.438,12.123,12.123v60.152
		c0,2.689-0.891,5.168-2.378,7.181h4.185l13.398,29.94h-14.429l-13.398-29.94h-13.398l13.398,29.94h1.743v40.819v0.954v25.265v0.56
		v15.827v50.921h-5.337h-3.048h-0.913v-66.382V443.65v-0.921v-49.117h-6.874l-13.398-29.94h-13.398l13.398,29.94h-14.429
		l-13.398-29.94h-13.398l13.398,29.94H367.13l-13.398-29.94h-13.398l13.398,29.94h-14.429l-13.398-29.94h-13.398l13.398,29.94
		h-14.429l-13.398-29.94h-13.398l13.398,29.94h-14.429l-13.398-29.94H256.85l13.398,29.94H255.82l-13.398-29.94h-9.289
		c-1.487-2.013-2.378-4.492-2.378-7.181v-60.152c0-1.002,0.136-1.972,0.366-2.904c1.306-5.284,6.075-9.219,11.757-9.219h29.286
		H273.065z M437.715,359.614c1.722,0,3.123-1.401,3.123-3.123v-60.152c0-1.722-1.401-3.123-3.123-3.123H242.877
		c-1.722,0-3.123,1.401-3.123,3.123v60.152c0,1.722,1.401,3.123,3.123,3.123H437.715z M304.295,319.194
		c4.992,0,7.971-2.808,7.971-8.708v-10.722h-4.312v11.006c0,3.375-1.248,4.964-3.518,4.964c-2.213,0-3.461-1.674-3.461-4.964
		v-11.006h-4.34v10.666C296.636,316.527,299.473,319.194,304.295,319.194z M319.984,313.124c0-3.12-0.057-5.815-0.171-8.34
		l0.086-0.028c0.936,2.241,2.184,4.709,3.318,6.751l4.085,7.375h4.538v-19.119h-3.971v5.588c0,2.865,0.085,5.446,0.368,7.971h-0.085
		c-0.851-2.156-1.985-4.539-3.12-6.553l-3.972-7.006h-5.049v19.119h3.972V313.124z M340.495,319.081
		c-2.24,0-3.829-0.142-4.907-0.284v-18.778c1.589-0.255,3.659-0.397,5.844-0.397c3.631,0,5.985,0.652,7.829,2.042
		c1.985,1.475,3.233,3.83,3.233,7.205c0,3.659-1.333,6.184-3.177,7.744C347.303,318.286,344.239,319.081,340.495,319.081z
		 M339.928,315.62c0.369,0.085,0.965,0.085,1.504,0.085c3.914,0.028,6.467-2.128,6.467-6.695c0.028-3.971-2.297-6.07-6.013-6.07
		c-0.965,0-1.589,0.085-1.958,0.17V315.62z M367.531,315.336h-7.857v-4.539h7.035v-3.517h-7.035v-3.971h7.461v-3.546h-11.801v19.119
		h12.197V315.336z M383.361,313.492c0.596,2.156,1.191,4.652,1.561,5.39h-4.425c-0.313-0.539-0.767-2.099-1.334-4.454
		c-0.51-2.383-1.333-3.035-3.092-3.063h-1.305v7.517h-4.283v-18.863c1.39-0.227,3.461-0.397,5.759-0.397
		c2.836,0,4.822,0.426,6.184,1.503c1.135,0.908,1.759,2.241,1.759,4c0,2.439-1.73,4.113-3.376,4.708v0.085
		C382.142,310.457,382.88,311.733,383.361,313.492z M379.901,305.493c0-1.759-1.191-2.638-3.178-2.667
		c-1.049,0-1.645,0.085-1.957,0.142v5.276h1.702C378.625,308.245,379.901,307.167,379.901,305.493z M259.922,333.808l-2.042,6.354
		c-0.624,2.127-1.277,4.652-1.815,6.864h-0.085c-0.425-2.24-1.021-4.623-1.617-6.836l-1.872-6.383h-5.758l-1.22,19.119h4l0.34-7.262
		c0.142-2.383,0.227-5.333,0.34-7.914h0.057c0.454,2.496,1.106,5.22,1.73,7.46l2.042,7.403h3.375l2.326-7.46
		c0.737-2.241,1.532-4.964,2.127-7.403h0.085c0,2.78,0.085,5.56,0.17,7.857l0.284,7.318h4.227l-1.05-19.119H259.922z
		 M279.981,333.808l5.928,19.119h-4.652l-1.475-4.907h-5.475l-1.362,4.907h-4.481l5.843-19.119H279.981z M279.159,344.786
		l-1.191-4.057c-0.34-1.135-0.681-2.553-0.964-3.688h-0.057c-0.284,1.135-0.567,2.581-0.879,3.688l-1.135,4.057H279.159z
		 M288.465,352.927h4.34v-19.119h-4.34V352.927z M308.408,339.396c0,2.864,0.085,5.446,0.368,7.971h-0.085
		c-0.851-2.156-1.985-4.539-3.12-6.553l-3.972-7.007h-5.049v19.119h3.972v-5.759c0-3.12-0.057-5.814-0.171-8.339l0.086-0.028
		c0.936,2.24,2.184,4.708,3.318,6.751l4.085,7.375h4.538v-19.119h-3.971V339.396z M314.68,337.438h5.134v15.488h4.34v-15.488h5.22
		v-3.631H314.68V337.438z M360.099,339.396c0,2.864,0.085,5.446,0.368,7.971h-0.085c-0.851-2.156-1.985-4.539-3.12-6.553
		l-3.972-7.007h-5.049v19.119h3.972v-5.759c0-3.12-0.057-5.814-0.171-8.339l0.086-0.028c0.936,2.24,2.184,4.708,3.318,6.751
		l4.085,7.375h4.538v-19.119h-3.971V339.396z M377.943,333.808l5.929,19.119h-4.652l-1.475-4.907h-5.476l-1.361,4.907h-4.481
		l5.843-19.119H377.943z M377.12,344.786l-1.191-4.057c-0.34-1.135-0.681-2.553-0.964-3.688h-0.057
		c-0.284,1.135-0.567,2.581-0.88,3.688l-1.135,4.057H377.12z M398.285,339.396c0,2.864,0.085,5.446,0.368,7.971h-0.085
		c-0.851-2.156-1.985-4.539-3.12-6.553l-3.972-7.007h-5.049v19.119h3.972v-5.759c0-3.12-0.057-5.814-0.171-8.339l0.086-0.028
		c0.936,2.24,2.184,4.708,3.318,6.751l4.085,7.375h4.538v-19.119h-3.971V339.396z M419.392,349.013
		c-0.851,0.34-2.298,0.624-3.603,0.624c-3.857,0-6.127-2.411-6.127-6.241c0-4.255,2.667-6.325,6.099-6.325
		c1.532,0,2.752,0.34,3.631,0.709l0.88-3.433c-0.767-0.396-2.468-0.851-4.709-0.851c-5.787,0-10.438,3.631-10.438,10.155
		c0,5.446,3.403,9.559,10.013,9.559c2.326,0,4.113-0.425,4.907-0.822L419.392,349.013z M427.223,344.843h7.035v-3.518h-7.035v-3.972
		h7.461v-3.546h-11.801v19.119h12.197v-3.546h-7.857V344.843z M336.181,344.843h7.035v-3.518h-7.035v-3.972h7.461v-3.546h-11.801
		v19.119h12.197v-3.546h-7.857V344.843z M229.023,363.672h-14.429l13.398,29.94h13.643v22.191v0.932v66.407v0.684v44.132h9.298
		v-41.756v-0.683v-65.154v-0.939v-25.815h-8.511L229.023,363.672z"></path>
	<path id="color_x5F_2" fill="#088608" d="M296.089,145.788c0.258,0.037,0.448,0.195,0.45,0.441c0.003,0.246-0.194,0.448-0.441,0.45
		c-1.19,0.013-2.376,0.041-3.559,0.083c-0.005,0-0.01,0-0.016,0c-0.238,0-0.436-0.189-0.445-0.43
		c-0.009-0.246,0.183-0.452,0.43-0.461C293.698,145.829,294.891,145.801,296.089,145.788z M302.362,145.857c-0.005,0-0.01,0-0.015,0
		c-0.239,0-0.438,0.19-0.445,0.431c-0.008,0.246,0.185,0.452,0.431,0.46c1.19,0.039,2.377,0.093,3.559,0.161
		c0.009,0,0.018,0.001,0.026,0.001c0.235,0,0.431-0.183,0.445-0.42c0.014-0.245-0.173-0.456-0.418-0.47
		C304.753,145.95,303.559,145.897,302.362,145.857z M312.194,146.521c-0.24-0.018-0.463,0.152-0.488,0.398
		c-0.025,0.245,0.152,0.463,0.398,0.489c1.183,0.121,2.363,0.257,3.539,0.408c0.019,0.002,0.038,0.003,0.057,0.003
		c0.22,0,0.412-0.164,0.441-0.389c0.031-0.244-0.141-0.467-0.385-0.499C314.573,146.78,313.386,146.643,312.194,146.521z
		 M321.958,147.866c-0.237-0.043-0.473,0.121-0.514,0.363c-0.043,0.242,0.12,0.473,0.363,0.515c1.172,0.203,2.34,0.422,3.503,0.654
		c0.029,0.006,0.058,0.009,0.088,0.009c0.208,0,0.393-0.146,0.436-0.358c0.049-0.241-0.108-0.476-0.35-0.524
		C324.314,148.29,323.139,148.071,321.958,147.866z M230.009,162.992c-1.047,0.572-2.086,1.157-3.117,1.755
		c-0.213,0.124-0.286,0.396-0.162,0.609c0.083,0.142,0.232,0.222,0.386,0.222c0.076,0,0.153-0.019,0.223-0.06
		c1.024-0.594,2.057-1.175,3.097-1.744c0.216-0.118,0.295-0.389,0.177-0.604C230.496,162.953,230.224,162.873,230.009,162.992z
		 M221.543,168.008c-1.005,0.643-2.002,1.3-2.99,1.969c-0.204,0.138-0.257,0.415-0.119,0.619c0.086,0.127,0.227,0.196,0.369,0.196
		c0.086,0,0.173-0.025,0.249-0.077c0.982-0.664,1.972-1.316,2.97-1.956c0.208-0.133,0.268-0.408,0.135-0.615
		C222.026,167.936,221.749,167.874,221.543,168.008z M213.443,173.605c-0.959,0.713-1.908,1.438-2.847,2.173
		c-0.194,0.152-0.228,0.432-0.076,0.625c0.088,0.112,0.219,0.171,0.351,0.171c0.096,0,0.193-0.031,0.275-0.095
		c0.933-0.731,1.876-1.451,2.829-2.159c0.198-0.147,0.238-0.426,0.092-0.623C213.919,173.499,213.64,173.457,213.443,173.605z
		 M205.747,179.755c-0.906,0.777-1.803,1.566-2.69,2.366c-0.183,0.164-0.197,0.446-0.032,0.629c0.088,0.097,0.209,0.147,0.331,0.147
		c0.107,0,0.213-0.038,0.298-0.115c0.882-0.795,1.773-1.578,2.674-2.351c0.187-0.16,0.208-0.441,0.048-0.628
		C206.216,179.617,205.934,179.595,205.747,179.755z M238.8,158.58c-1.084,0.498-2.161,1.008-3.23,1.532
		c-0.221,0.108-0.312,0.376-0.204,0.596c0.078,0.158,0.236,0.249,0.401,0.249c0.066,0,0.133-0.014,0.196-0.045
		c1.062-0.521,2.132-1.028,3.209-1.522c0.224-0.103,0.322-0.367,0.219-0.591C239.288,158.576,239.024,158.479,238.8,158.58z
		 M272.916,147.937c-0.242,0.043-0.404,0.274-0.361,0.516c0.038,0.216,0.226,0.368,0.438,0.368c0.026,0,0.052-0.002,0.078-0.007
		c1.167-0.206,2.339-0.398,3.516-0.574c0.244-0.036,0.411-0.264,0.375-0.507c-0.037-0.243-0.259-0.406-0.507-0.375
		C275.269,147.536,274.09,147.729,272.916,147.937z M198.493,186.423c-0.851,0.839-1.691,1.688-2.521,2.548
		c-0.171,0.177-0.166,0.459,0.011,0.63c0.087,0.084,0.198,0.125,0.309,0.125c0.117,0,0.233-0.046,0.321-0.136
		c0.825-0.854,1.66-1.699,2.505-2.532c0.175-0.173,0.177-0.455,0.004-0.63C198.95,186.252,198.667,186.251,198.493,186.423z
		 M282.676,146.563c-0.245,0.026-0.422,0.245-0.396,0.49c0.024,0.229,0.217,0.399,0.442,0.399c0.016,0,0.031-0.001,0.047-0.003
		c1.178-0.124,2.36-0.233,3.548-0.328c0.245-0.02,0.428-0.234,0.409-0.48c-0.02-0.245-0.229-0.427-0.48-0.409
		C285.051,146.328,283.861,146.438,282.676,146.563z M247.884,154.793c-1.12,0.422-2.233,0.857-3.339,1.306
		c-0.228,0.093-0.338,0.353-0.245,0.58c0.071,0.173,0.237,0.278,0.413,0.278c0.056,0,0.113-0.01,0.167-0.033
		c1.099-0.446,2.205-0.879,3.318-1.298c0.23-0.087,0.347-0.343,0.26-0.574C248.371,154.822,248.115,154.706,247.884,154.793z
		 M257.226,151.646c-1.147,0.341-2.288,0.698-3.423,1.068c-0.234,0.076-0.362,0.328-0.285,0.562
		c0.061,0.188,0.236,0.307,0.424,0.307c0.046,0,0.092-0.007,0.138-0.022c1.127-0.368,2.261-0.721,3.4-1.061
		c0.236-0.07,0.37-0.318,0.3-0.554C257.709,151.71,257.461,151.575,257.226,151.646z M266.765,149.164
		c-1.168,0.26-2.332,0.535-3.489,0.825c-0.239,0.06-0.384,0.302-0.324,0.54c0.051,0.203,0.232,0.338,0.432,0.338
		c0.036,0,0.072-0.004,0.108-0.013c1.15-0.287,2.306-0.56,3.467-0.82c0.24-0.054,0.391-0.292,0.338-0.532
		C267.243,149.262,267.006,149.111,266.765,149.164z M426.025,229.129c-0.224,0.101-0.325,0.364-0.224,0.589
		c0.483,1.079,0.953,2.165,1.41,3.258c0.071,0.171,0.237,0.274,0.411,0.274c0.057,0,0.116-0.011,0.171-0.034
		c0.227-0.095,0.334-0.355,0.239-0.583c-0.459-1.1-0.932-2.194-1.418-3.28C426.512,229.128,426.248,229.028,426.025,229.129z
		 M429.741,238.193c-0.231,0.085-0.35,0.341-0.265,0.572c0.408,1.114,0.802,2.234,1.183,3.362c0.063,0.186,0.236,0.303,0.422,0.303
		c0.047,0,0.096-0.007,0.143-0.023c0.233-0.079,0.359-0.332,0.279-0.565c-0.383-1.134-0.78-2.262-1.19-3.382
		C430.228,238.227,429.973,238.109,429.741,238.193z M421.679,220.341c-0.218,0.116-0.299,0.386-0.184,0.603
		c0.558,1.043,1.104,2.095,1.637,3.154c0.078,0.156,0.235,0.245,0.398,0.245c0.068,0,0.136-0.015,0.2-0.047
		c0.22-0.11,0.308-0.379,0.198-0.598c-0.535-1.066-1.084-2.124-1.646-3.174C422.164,220.305,421.892,220.225,421.679,220.341z
		 M411.196,203.765c-0.198,0.145-0.242,0.424-0.097,0.623c0.7,0.958,1.386,1.924,2.061,2.9c0.086,0.125,0.225,0.192,0.366,0.192
		c0.088,0,0.176-0.026,0.253-0.079c0.203-0.14,0.253-0.417,0.113-0.62c-0.679-0.983-1.37-1.956-2.074-2.919
		C411.673,203.664,411.394,203.62,411.196,203.765z M416.728,211.873c-0.209,0.13-0.272,0.405-0.141,0.614
		c0.63,1.003,1.248,2.015,1.854,3.036c0.083,0.14,0.232,0.218,0.383,0.218c0.077,0,0.156-0.02,0.227-0.062
		c0.211-0.126,0.282-0.399,0.156-0.611c-0.609-1.026-1.23-2.044-1.864-3.054C417.21,211.805,416.936,211.743,416.728,211.873z
		 M437.947,270.65c-0.138-1.189-0.29-2.375-0.457-3.555c-0.034-0.245-0.257-0.417-0.504-0.379c-0.244,0.034-0.413,0.26-0.379,0.503
		c0.165,1.173,0.317,2.351,0.453,3.534c0.027,0.227,0.219,0.394,0.442,0.394c0.017,0,0.035-0.001,0.052-0.003
		C437.8,271.116,437.975,270.895,437.947,270.65z M438.291,280.94c0.006,0,0.013,0,0.02,0c0.246-0.011,0.436-0.219,0.425-0.465
		c-0.054-1.197-0.124-2.391-0.208-3.58c-0.018-0.246-0.248-0.434-0.476-0.412c-0.245,0.017-0.431,0.231-0.413,0.476
		c0.084,1.181,0.154,2.367,0.208,3.556C437.857,280.754,438.054,280.94,438.291,280.94z M432.824,247.523
		c-0.237,0.068-0.372,0.315-0.305,0.552c0.329,1.139,0.643,2.285,0.943,3.435c0.052,0.201,0.232,0.333,0.431,0.333
		c0.037,0,0.075-0.005,0.112-0.014c0.238-0.062,0.381-0.306,0.318-0.544c-0.302-1.158-0.618-2.311-0.949-3.458
		C433.307,247.591,433.058,247.455,432.824,247.523z M435.242,257.047c-0.24,0.051-0.394,0.288-0.343,0.529
		c0.247,1.159,0.481,2.324,0.701,3.494c0.04,0.214,0.227,0.363,0.437,0.363c0.028,0,0.056-0.003,0.083-0.008
		c0.242-0.045,0.401-0.278,0.356-0.52c-0.221-1.177-0.455-2.349-0.704-3.516C435.718,257.149,435.484,256.993,435.242,257.047z
		 M405.112,196.058c-0.188,0.158-0.212,0.439-0.054,0.628c0.765,0.907,1.518,1.824,2.258,2.751c0.088,0.11,0.218,0.168,0.348,0.168
		c0.098,0,0.196-0.032,0.279-0.098c0.191-0.154,0.224-0.434,0.07-0.626c-0.746-0.933-1.504-1.857-2.272-2.77
		C405.581,195.924,405.3,195.901,405.112,196.058z M350.379,155.956c-0.225-0.091-0.488,0.018-0.58,0.247
		c-0.092,0.228,0.018,0.488,0.247,0.58c1.106,0.446,2.205,0.904,3.296,1.378c0.058,0.025,0.118,0.036,0.178,0.036
		c0.172,0,0.336-0.101,0.409-0.268c0.097-0.226-0.006-0.488-0.232-0.586C352.598,156.866,351.492,156.404,350.379,155.956z
		 M368.128,164.599c-0.212-0.122-0.486-0.049-0.608,0.163c-0.124,0.213-0.05,0.486,0.163,0.609c1.03,0.595,2.054,1.202,3.067,1.823
		c0.072,0.044,0.152,0.065,0.232,0.065c0.15,0,0.296-0.076,0.38-0.213c0.128-0.21,0.062-0.484-0.148-0.613
		C370.193,165.809,369.165,165.197,368.128,164.599z M359.408,159.967c-0.218-0.106-0.487-0.016-0.595,0.206
		c-0.108,0.221-0.016,0.488,0.205,0.596c1.071,0.522,2.135,1.056,3.19,1.604c0.066,0.034,0.136,0.05,0.205,0.05
		c0.161,0,0.316-0.087,0.395-0.24c0.114-0.218,0.029-0.487-0.19-0.601C361.556,161.03,360.486,160.492,359.408,159.967z
		 M341.086,152.589c-0.232-0.075-0.485,0.053-0.56,0.287c-0.076,0.234,0.052,0.486,0.287,0.561c1.135,0.367,2.264,0.748,3.388,1.143
		c0.049,0.017,0.099,0.025,0.148,0.025c0.184,0,0.356-0.114,0.42-0.298c0.082-0.232-0.04-0.486-0.272-0.568
		C343.366,153.341,342.23,152.958,341.086,152.589z M391.409,181.991c-0.164,0.183-0.15,0.465,0.034,0.629
		c0.883,0.795,1.756,1.6,2.619,2.415c0.086,0.081,0.197,0.122,0.306,0.122c0.118,0,0.236-0.047,0.324-0.14
		c0.169-0.179,0.161-0.461-0.017-0.63c-0.868-0.821-1.748-1.631-2.637-2.43C391.858,181.794,391.574,181.808,391.409,181.991z
		 M331.605,149.891c-0.245-0.059-0.48,0.087-0.539,0.326c-0.059,0.239,0.087,0.48,0.325,0.539c1.155,0.285,2.304,0.584,3.448,0.898
		c0.04,0.01,0.079,0.016,0.118,0.016c0.196,0,0.375-0.13,0.43-0.328c0.065-0.237-0.075-0.483-0.311-0.548
		C333.923,150.479,332.766,150.178,331.605,149.891z M398.506,188.788c-0.177,0.171-0.182,0.453-0.01,0.63
		c0.826,0.853,1.64,1.717,2.446,2.59c0.088,0.095,0.207,0.144,0.327,0.144c0.108,0,0.217-0.039,0.302-0.118
		c0.181-0.167,0.192-0.449,0.025-0.63c-0.809-0.878-1.629-1.747-2.46-2.606C398.965,188.622,398.683,188.618,398.506,188.788z
		 M383.855,175.7c-0.151,0.194-0.117,0.474,0.077,0.625c0.937,0.731,1.864,1.474,2.782,2.229c0.083,0.068,0.183,0.101,0.283,0.101
		c0.129,0,0.256-0.055,0.345-0.163c0.156-0.19,0.129-0.471-0.062-0.627c-0.923-0.759-1.857-1.507-2.799-2.242
		C384.286,175.473,384.007,175.505,383.855,175.7z M375.88,169.948c-0.137,0.204-0.083,0.481,0.121,0.618
		c0.986,0.665,1.964,1.342,2.932,2.031c0.078,0.056,0.169,0.083,0.258,0.083c0.139,0,0.276-0.065,0.363-0.187
		c0.143-0.201,0.096-0.479-0.104-0.621c-0.975-0.694-1.958-1.375-2.951-2.044C376.295,169.691,376.019,169.743,375.88,169.948z
		 M191.716,193.582c-0.791,0.896-1.57,1.802-2.339,2.718c-0.158,0.188-0.133,0.469,0.055,0.628c0.083,0.07,0.185,0.104,0.286,0.104
		c0.128,0,0.254-0.054,0.342-0.159c0.764-0.91,1.539-1.811,2.324-2.701c0.163-0.185,0.145-0.466-0.04-0.629
		C192.161,193.38,191.879,193.398,191.716,193.582z M337.789,422.469c0.042,0,0.084-0.006,0.127-0.018
		c1.148-0.34,2.289-0.696,3.423-1.065c0.234-0.077,0.362-0.328,0.286-0.561c-0.077-0.234-0.328-0.361-0.561-0.286
		c-1.128,0.367-2.262,0.72-3.402,1.058c-0.236,0.07-0.37,0.318-0.3,0.554C337.419,422.343,337.597,422.469,337.789,422.469z
		 M254.055,421.423c0.046,0.015,0.092,0.022,0.138,0.022c0.188,0,0.363-0.12,0.424-0.308c0.076-0.234-0.052-0.486-0.286-0.561
		c-1.135-0.368-2.264-0.749-3.386-1.146c-0.004-0.001-0.008,0-0.011-0.002v0.939C251.968,420.729,253.009,421.084,254.055,421.423z
		 M241.217,416.071c-0.097,0.226,0.006,0.488,0.232,0.586c0.061,0.027,0.124,0.051,0.185,0.078v-0.932
		C241.46,415.8,241.292,415.901,241.217,416.071z M299.042,428.268c0.002,0,0.003,0,0.004,0c1.197-0.012,2.391-0.038,3.581-0.079
		c0.245-0.009,0.438-0.215,0.43-0.461c-0.01-0.245-0.219-0.432-0.461-0.43c-1.182,0.041-2.368,0.067-3.558,0.079
		c-0.246,0.003-0.444,0.204-0.441,0.45C298.599,428.072,298.798,428.268,299.042,428.268z M318.616,426.723
		c0.022,0,0.044-0.002,0.066-0.005c1.185-0.176,2.364-0.368,3.539-0.574c0.243-0.043,0.405-0.273,0.362-0.515
		c-0.042-0.244-0.287-0.411-0.515-0.362c-1.168,0.204-2.34,0.395-3.516,0.571c-0.244,0.036-0.412,0.263-0.375,0.506
		C318.208,426.565,318.399,426.723,318.616,426.723z M328.277,424.933c0.031,0,0.064-0.003,0.097-0.01
		c1.169-0.259,2.332-0.533,3.49-0.821c0.238-0.059,0.384-0.301,0.325-0.54c-0.06-0.239-0.301-0.384-0.54-0.325
		c-1.15,0.286-2.306,0.559-3.468,0.816c-0.24,0.053-0.392,0.292-0.339,0.532C327.888,424.792,328.073,424.933,328.277,424.933z
		 M308.853,427.836c0.012,0,0.024-0.001,0.036-0.002c1.196-0.094,2.385-0.203,3.57-0.327c0.245-0.025,0.423-0.244,0.397-0.489
		c-0.025-0.245-0.25-0.427-0.489-0.397c-1.178,0.123-2.361,0.232-3.548,0.325c-0.245,0.019-0.429,0.233-0.409,0.479
		C308.429,427.658,308.624,427.836,308.853,427.836z M356.163,415.573c0.062,0,0.125-0.013,0.185-0.04
		c1.085-0.496,2.162-1.006,3.232-1.529c0.221-0.108,0.312-0.375,0.204-0.596c-0.109-0.222-0.378-0.311-0.596-0.204
		c-1.062,0.52-2.133,1.026-3.211,1.518c-0.224,0.103-0.322,0.367-0.22,0.591C355.832,415.477,355.994,415.573,356.163,415.573z
		 M388.842,393.716c-0.187,0.16-0.209,0.441-0.049,0.628c0.088,0.103,0.213,0.156,0.338,0.156c0.103,0,0.205-0.035,0.29-0.107
		c0.3-0.257,0.592-0.522,0.89-0.781h-1.351C388.921,393.646,388.882,393.682,388.842,393.716z M347.103,419.341
		c0.052,0,0.105-0.009,0.157-0.029c1.12-0.42,2.234-0.855,3.341-1.302c0.228-0.092,0.339-0.352,0.246-0.58
		c-0.093-0.228-0.354-0.337-0.58-0.246c-1.1,0.446-2.207,0.876-3.32,1.295c-0.231,0.086-0.347,0.343-0.26,0.573
		C346.754,419.231,346.923,419.341,347.103,419.341z M227.472,408.615c-1.031-0.596-2.053-1.205-3.066-1.827
		c-0.21-0.129-0.485-0.062-0.613,0.148c-0.129,0.21-0.063,0.484,0.147,0.613c1.021,0.625,2.049,1.237,3.086,1.837
		c0.07,0.041,0.147,0.06,0.223,0.06c0.154,0,0.304-0.08,0.386-0.223C227.758,409.01,227.685,408.737,227.472,408.615z
		 M189.787,377.995c0.101,0,0.203-0.034,0.286-0.104c0.188-0.158,0.213-0.439,0.054-0.627c-0.763-0.909-1.516-1.827-2.256-2.754
		c-0.154-0.193-0.434-0.224-0.626-0.07c-0.019,0.015-0.03,0.037-0.046,0.055l-0.005,0.596c0.739,0.926,1.489,1.841,2.25,2.747
		C189.533,377.941,189.66,377.995,189.787,377.995z M373.373,406.193c0.083,0,0.165-0.023,0.24-0.07
		c1.006-0.643,2.003-1.298,2.992-1.967c0.204-0.137,0.258-0.414,0.119-0.619c-0.138-0.204-0.415-0.258-0.619-0.119
		c-0.982,0.663-1.972,1.315-2.972,1.953c-0.208,0.133-0.269,0.408-0.137,0.615C373.082,406.12,373.227,406.193,373.373,406.193z
		 M236.133,413.227c-1.071-0.523-2.133-1.059-3.188-1.608c-0.219-0.114-0.488-0.029-0.601,0.19c-0.114,0.218-0.029,0.487,0.189,0.6
		c1.062,0.552,2.132,1.092,3.208,1.619c0.063,0.03,0.13,0.045,0.195,0.045c0.165,0,0.323-0.092,0.401-0.25
		C236.445,413.602,236.354,413.334,236.133,413.227z M364.93,411.185c0.072,0,0.145-0.017,0.213-0.054
		c1.048-0.572,2.088-1.156,3.119-1.753c0.213-0.123,0.286-0.396,0.163-0.608c-0.124-0.213-0.399-0.287-0.608-0.163
		c-1.026,0.593-2.059,1.174-3.1,1.74c-0.216,0.118-0.296,0.389-0.178,0.605C364.619,411.102,364.772,411.185,364.93,411.185z
		 M201.112,388.923c-0.178-0.167-0.46-0.161-0.63,0.017c-0.169,0.178-0.162,0.46,0.017,0.63c0.868,0.822,1.745,1.632,2.633,2.433
		c0.085,0.077,0.192,0.115,0.299,0.115c0.122,0,0.243-0.05,0.331-0.147c0.164-0.183,0.15-0.465-0.033-0.629
		C202.846,390.546,201.974,389.74,201.112,388.923z M194.241,381.945c-0.167-0.182-0.449-0.193-0.63-0.027
		c-0.181,0.166-0.194,0.448-0.027,0.629c0.808,0.881,1.628,1.751,2.458,2.61c0.087,0.09,0.204,0.136,0.32,0.136
		c0.111,0,0.223-0.042,0.31-0.125c0.177-0.171,0.181-0.453,0.01-0.63C195.858,383.683,195.044,382.82,194.241,381.945z
		 M208.453,395.411c-0.189-0.157-0.471-0.128-0.627,0.06c-0.157,0.19-0.13,0.471,0.06,0.627c0.922,0.761,1.855,1.51,2.797,2.246
		c0.082,0.064,0.178,0.095,0.274,0.095c0.133,0,0.264-0.059,0.352-0.171c0.151-0.193,0.117-0.473-0.077-0.625
		C210.296,396.911,209.37,396.167,208.453,395.411z M216.229,401.377c-0.2-0.142-0.478-0.095-0.621,0.104
		c-0.143,0.2-0.096,0.479,0.104,0.621c0.974,0.694,1.957,1.377,2.948,2.047c0.077,0.052,0.164,0.077,0.249,0.077
		c0.143,0,0.283-0.069,0.369-0.196c0.138-0.204,0.084-0.481-0.12-0.619C218.174,402.744,217.197,402.067,216.229,401.377z
		 M381.453,400.621c0.092,0,0.185-0.029,0.265-0.088c0.959-0.711,1.909-1.435,2.849-2.17c0.194-0.151,0.229-0.432,0.077-0.625
		c-0.152-0.197-0.433-0.229-0.625-0.077c-0.935,0.73-1.878,1.449-2.831,2.156c-0.198,0.146-0.239,0.426-0.092,0.623
		C381.183,400.559,381.318,400.621,381.453,400.621z M292.789,428.193c0.239,0,0.437-0.19,0.445-0.431
		c0.008-0.245-0.184-0.452-0.43-0.46c-1.19-0.04-2.376-0.095-3.559-0.164c-0.239-0.022-0.456,0.173-0.471,0.419
		c-0.014,0.245,0.173,0.457,0.419,0.471c1.19,0.07,2.383,0.126,3.581,0.166C292.779,428.193,292.784,428.193,292.789,428.193z
		 M263.747,423.266c-1.154-0.286-2.303-0.587-3.446-0.901c-0.237-0.063-0.483,0.074-0.548,0.311
		c-0.065,0.238,0.074,0.483,0.311,0.548c1.151,0.317,2.307,0.619,3.469,0.907c0.036,0.009,0.072,0.013,0.107,0.013
		c0.2,0,0.382-0.136,0.432-0.339C264.132,423.567,263.986,423.325,263.747,423.266z M168.519,229.676
		c-0.1,0.224,0.001,0.488,0.226,0.588c0.059,0.026,0.12,0.038,0.181,0.038c0.171,0,0.334-0.098,0.408-0.264
		c0.128-0.288,0.265-0.571,0.395-0.857h-0.981C168.672,229.347,168.593,229.51,168.519,229.676z M185.45,201.196
		c-0.727,0.949-1.442,1.908-2.146,2.876c-0.145,0.199-0.1,0.478,0.098,0.622c0.079,0.057,0.171,0.085,0.261,0.085
		c0.138,0,0.274-0.064,0.361-0.184c0.699-0.962,1.41-1.914,2.133-2.858c0.15-0.195,0.113-0.475-0.083-0.625
		C185.88,200.964,185.6,201.001,185.45,201.196z M273.332,425.288c-1.172-0.205-2.339-0.425-3.501-0.658
		c-0.241-0.05-0.476,0.108-0.525,0.349s0.108,0.476,0.349,0.525c1.17,0.235,2.344,0.456,3.524,0.661
		c0.026,0.005,0.052,0.007,0.077,0.007c0.212,0,0.401-0.152,0.439-0.369C273.736,425.561,273.574,425.33,273.332,425.288z
		 M283.033,426.633c-1.184-0.123-2.363-0.259-3.539-0.412c-0.239-0.03-0.467,0.142-0.499,0.385
		c-0.031,0.244,0.141,0.468,0.385,0.499c1.183,0.152,2.37,0.291,3.562,0.413c0.016,0.002,0.031,0.003,0.046,0.003
		c0.225,0,0.419-0.171,0.443-0.399C283.456,426.877,283.278,426.659,283.033,426.633z M86.942,527.569
		c-5.22-9.962-10.418-19.934-15.952-29.72c-0.479,2.686-0.663,5.403-0.594,8.111c2.156,4.339,4.794,8.48,6.863,12.841
		c1.504,3.169,2.941,6.369,4.354,9.58h5.757C87.227,528.11,87.084,527.84,86.942,527.569z M88.547,470.149
		c-1.559,1.179-3.045,2.452-4.448,3.809c1.054,3.21,2.114,6.418,3.266,9.595c0.68,1.877-2.309,2.678-2.982,0.822
		c-0.948-2.613-1.83-5.249-2.702-7.887c-0.529,0.591-1.055,1.187-1.554,1.802c6.19,16.46,11.375,33.265,16.506,50.091h1.129
		C93.465,509.214,90.578,489.736,88.547,470.149z M77.949,481.203c-1.213,1.76-2.298,3.604-3.248,5.514
		c2.166,4.088,4.322,8.182,6.307,12.36c0.85,1.79-1.817,3.357-2.67,1.561c-1.658-3.49-3.43-6.921-5.225-10.34
		c-0.401,1.035-0.764,2.086-1.081,3.153c6.496,11.304,12.498,22.879,18.558,34.425c0.089,0.169,0.18,0.336,0.269,0.505h2.574
		C88.609,512.537,83.715,496.719,77.949,481.203z M109.364,503.191l-3.7-3.178c-0.64-0.549-0.65-1.525-0.037-2.105
		c1.413-1.338,3.191-2.6,4.91-3.684c1.643-11.203,3.879-22.394,6.045-33.571c-0.211-0.004-0.421-0.016-0.632-0.016
		c-3.675-0.008-7.317,0.49-10.85,1.417c-0.891,12.198-1.377,24.402-0.235,36.64c0.185,1.984-2.909,1.965-3.092,0
		c-1.112-11.918-0.68-23.806,0.166-35.685c-3.685,1.261-7.216,2.99-10.495,5.117c2.053,20.271,4.997,40.43,9.474,60.255h7.183
		C107.898,519.977,108.409,511.58,109.364,503.191z M146.651,494.116c-0.209-1.548-0.397-3.102-0.541-4.664
		c-3.854,7.91-7.451,15.935-11.028,23.976l2.616,3.345c0.541-1.433,1.071-2.869,1.621-4.299
		C141.68,506.334,144.041,500.167,146.651,494.116z M131.177,521.926c-0.988,2.119-1.977,4.277-2.954,6.455h5.19
		c0.416-1.153,0.835-2.305,1.256-3.456L131.177,521.926z M130.164,463.117c-1.056,3.13-2.063,6.273-3.005,9.435
		c1.644-2.81,3.425-5.687,5.313-8.563C131.708,463.681,130.94,463.386,130.164,463.117z M112.125,505.562
		c-0.787,7.603-1.178,15.211-0.976,22.818h5.906c1.101-5.115,2.409-10.2,3.897-15.237L112.125,505.562z M117.771,491.574
		l2.294-3.221c0.188-0.993,0.387-1.982,0.597-2.969l-0.21-0.18c0.145-0.31,0.3-0.629,0.451-0.944
		c1.65-7.482,3.861-14.807,6.311-22.061c-2.487-0.679-5.029-1.155-7.604-1.387c-2.045,10.478-4.152,20.974-5.763,31.48
		c1.704-0.924,2.921-1.486,2.921-1.486L117.771,491.574z M123.532,515.36c-1.246,4.311-2.363,8.653-3.319,13.021h4.67
		c1.278-2.892,2.586-5.737,3.881-8.526L123.532,515.36z M145.659,480.953c-5.171,5.805-9.874,11.057-13.261,14.51l-0.959-0.823
		l-1.733,1.721c-0.007,0.02-0.015,0.04-0.022,0.06l0.982,0.036l-0.563,6.433c-0.216,2.72,1.206,5.412,2.858,7.752
		c4.114-9.198,8.229-18.386,12.766-27.389C145.7,482.487,145.671,481.72,145.659,480.953z M150.474,515.296l1.262-0.07l-0.281-3.094
		c-0.174,0.438-0.358,0.87-0.517,1.317c-0.662,1.865-3.648,1.057-2.982-0.822c0.486-1.37,1.062-2.687,1.679-3.98h-0.015
		c-0.784-2.811-1.443-5.69-2-8.607c-1.563,3.735-3.086,7.49-4.556,11.283c-1.142,2.947-2.258,5.903-3.363,8.864
		c0.55,1.642,0.632,3.426,0.2,5.147l-0.487,1.941c-0.164,0.652-0.957,0.904-1.467,0.466l-0.774-0.665
		c-0.158,0.435-0.319,0.87-0.476,1.306h9.064c0.332-0.446,0.67-0.888,1.007-1.331C147.563,521.652,150.474,515.296,150.474,515.296z
		 M393.474,497.849c-0.479,2.686-0.663,5.403-0.594,8.111c2.156,4.339,4.794,8.48,6.863,12.841c1.504,3.169,2.941,6.369,4.354,9.58
		h5.757c-0.143-0.271-0.286-0.541-0.428-0.812C404.207,517.608,399.009,507.636,393.474,497.849z M406.584,473.958
		c1.054,3.21,2.114,6.418,3.266,9.595c0.68,1.877-2.309,2.678-2.982,0.822c-0.948-2.613-1.83-5.249-2.702-7.887
		c-0.529,0.591-1.055,1.187-1.554,1.802c6.19,16.46,11.375,33.265,16.506,50.091h1.129c-4.299-19.167-7.185-38.645-9.216-58.232
		C409.474,471.328,407.988,472.602,406.584,473.958z M397.186,486.716c2.166,4.088,4.322,8.182,6.307,12.36
		c0.85,1.79-1.817,3.357-2.67,1.561c-1.658-3.49-3.43-6.921-5.225-10.34c-0.401,1.035-0.764,2.086-1.081,3.153
		c6.496,11.304,12.498,22.879,18.558,34.425c0.089,0.169,0.18,0.336,0.269,0.505h2.574c-4.824-15.844-9.718-31.662-15.485-47.178
		C399.221,482.963,398.136,484.807,397.186,486.716z M429.66,527.959v-66.382c-0.695,0.147-1.389,0.297-2.076,0.477
		c-0.891,12.198-1.377,24.402-0.235,36.64c0.185,1.984-2.909,1.965-3.092,0c-1.112-11.918-0.68-23.806,0.166-35.685
		c-3.685,1.261-7.216,2.99-10.495,5.117c2.053,20.271,4.997,40.43,9.474,60.255h7.183c-0.003-0.141-0.009-0.281-0.012-0.422H429.66z
		 M439.066,460.654c-0.036-0.001-0.072-0.002-0.108-0.003v0.56C438.994,461.025,439.03,460.839,439.066,460.654z M461.804,512.474
		c3.411-8.87,6.807-17.8,10.98-26.345c0.997-2.041,2.025-4.084,3.034-6.139c-0.475-0.625-0.964-1.238-1.469-1.839
		c-1.394,2.611-2.764,5.235-4.089,7.884c-4.557,9.109-8.694,18.403-12.833,27.706c-2.083,4.683-4.458,9.595-6.72,14.639h5.19
		C457.817,523.061,459.773,517.754,461.804,512.474z M433.621,527.959c0.003,0.141,0.009,0.281,0.013,0.422h5.906
		c3.236-15.037,8.456-29.781,13.73-43.972c2.23-6.001,4.611-11.94,7.129-17.818c-2.478-1.389-5.076-2.547-7.75-3.474
		c-3.117,9.239-5.858,18.586-7.523,28.236c-0.338,1.96-3.317,1.124-2.982-0.822c1.671-9.683,4.425-19.063,7.556-28.332
		c-2.487-0.679-5.029-1.155-7.604-1.387c-1.055,5.404-2.125,10.814-3.137,16.226v50.921H433.621z M454.211,513.402
		c4.625-10.326,9.188-20.666,14.304-30.763c1.18-2.329,2.408-4.63,3.651-6.922c-0.687-0.718-1.396-1.415-2.125-2.09
		c-2.235,3.608-4.475,7.213-6.853,10.731c-1.109,1.642-3.787,0.092-2.67-1.561c2.485-3.678,4.822-7.45,7.159-11.222
		c-1.478-1.208-3.021-2.337-4.623-3.372c-2.4,5.619-4.673,11.295-6.804,17.029c-5.172,13.916-10.323,28.392-13.552,43.15h4.67
		C449.647,523.223,452.063,518.198,454.211,513.402z M485.192,508.094c0.053-3.658-0.314-7.322-1.155-10.91
		c-0.039-0.164-0.086-0.326-0.127-0.49c-4.423,5.045-8.257,10.467-10.487,16.754c-0.662,1.865-3.648,1.057-2.982-0.822
		c2.614-7.367,7.245-13.561,12.482-19.338c-1.238-3.674-2.96-7.171-5.076-10.418c-4.573,9.307-8.55,18.781-12.299,28.453
		c-2.194,5.66-4.302,11.352-6.367,17.059h9.064C473.499,521.325,479.364,514.632,485.192,508.094z"></path>
	<path id="color_x5F_1" fill="#33c933" d="M105.996,361.342c-9.42-23.821-14.361-49.446-14.361-75.833
		c0-38.43,10.465-75.247,30.024-107.218c0.196,0.135,0.399,0.262,0.611,0.379c-19.046,31.147-30.035,67.733-30.035,106.839
		c0,26.689,5.12,52.203,14.424,75.617C106.431,361.19,106.21,361.261,105.996,361.342z M297.638,80.107
		c80.363,0,150.083,46.398,183.81,113.806c0.216-0.105,0.442-0.199,0.675-0.285c-9.81-19.65-22.836-37.801-38.819-53.784
		c-38.909-38.909-90.641-60.337-145.666-60.337c-55.025,0-106.757,21.428-145.666,60.337c-7.67,7.67-14.649,15.844-20.93,24.438
		c0.199,0.139,0.388,0.286,0.569,0.442C168.997,113.476,229.489,80.107,297.638,80.107z M273.626,490.124
		c0.011-0.204,0.029-0.406,0.053-0.609c-7.723-0.901-15.307-2.258-22.746-3.995v0.683
		C258.384,487.922,265.956,489.239,273.626,490.124z M241.635,483.143c-24.422-6.931-46.994-18.291-66.818-33.132
		c-0.155,0.141-0.304,0.289-0.462,0.428c-0.029,0.026-0.061,0.055-0.09,0.081c20.332,15.266,43.119,26.501,67.371,33.307V483.143z
		 M153.646,431.82c-16.287-16.033-29.927-34.748-40.176-55.433c-0.203,0.127-0.416,0.243-0.636,0.351
		c9.846,19.901,22.979,38.278,39.139,54.437c0.537,0.537,1.084,1.062,1.626,1.593C153.611,432.451,153.638,432.137,153.646,431.82z
		 M443.304,431.175c38.908-38.908,60.336-90.641,60.336-145.665c0-26.639-5.036-52.5-14.633-76.514
		c-0.206,0.105-0.419,0.201-0.64,0.288c9.458,23.581,14.673,49.305,14.673,76.226c0,58.559-24.635,111.47-64.082,148.922v0.954
		C440.422,434.003,441.874,432.604,443.304,431.175z M289.801,490.762c-0.003,0.196-0.01,0.392-0.024,0.588
		c2.613,0.097,5.232,0.162,7.861,0.162c48.822,0,95.042-16.881,132.022-47.862v-0.921c-35.727,30.05-81.794,48.183-132.022,48.183
		C295.014,490.912,292.402,490.86,289.801,490.762z M187.451,341.501c-3.913-20.32-6.554-40.729-7.208-61.263l15.584,18.403
		c5.985-0.225,11.952-0.797,17.874-1.675c1.248-6.369,2.607-13.116,1.762-19.407c-3.869,0.062-7.519,0.071-10.739-0.023
		c-7.353-10.641-15.757-21.893-23.11-32.534c-0.631-0.914-1.337-1.721-2.098-2.455c-0.158-0.189-0.328-0.369-0.509-0.539
		c-3.33-3.128-7.205-5.83-11.333-7.899l-0.687,8.149l-2.095-0.177c-4.022-4.301-8.502-8.112-13.747-10.594l0.149-1.772
		c-5.572-0.165-10.953,1.16-15.511,4.439c-1.386,0.997-2.486,2.102-3.379,3.265c-1.004,0.66-1.912,1.501-2.647,2.537L93.383,291.26
		c1.707,5.741,3.744,11.378,6.068,16.896c6.48-0.375,13.353-0.737,19.236-3.12c-1.022-3.732-1.939-7.265-2.649-10.408
		c3.736-4.305,7.537-8.839,11.345-13.398c0.359,22.583,3.642,42.803,10.027,67.678c0.131,0.063,0.272,0.118,0.405,0.18
		C152.007,355.599,179.615,351.179,187.451,341.501z M181.317,194.015c2.154-0.394,4.272-0.773,6.345-1.134
		c4.228-0.736,8.257-1.397,11.883-1.935c-0.076-0.868-8.087-0.905-8.253-1.745c-2.218-11.241-12.258-19.73-24.321-19.73
		c-13.69,0-24.788,10.929-24.788,24.411c0,2.49,0.402,4.883,1.107,7.146c0.077,0.246,0.14,0.498,0.224,0.741
		c1.152-0.266,2.358-0.538,3.59-0.814c4.664-1.045,9.851-2.153,15.237-3.255C168.58,196.423,175.067,195.159,181.317,194.015z
		 M376.724,302.827c-1.049,0-1.645,0.085-1.957,0.142v5.276h1.702c2.156,0,3.433-1.078,3.433-2.751
		C379.901,303.734,378.71,302.855,376.724,302.827z M374.965,337.042h-0.057c-0.284,1.135-0.567,2.581-0.88,3.688l-1.135,4.057
		h4.227l-1.191-4.057C375.589,339.595,375.248,338.177,374.965,337.042z M437.715,359.614H242.877c-1.722,0-3.123-1.401-3.123-3.123
		v-60.152c0-1.722,1.401-3.123,3.123-3.123h194.837c1.722,0,3.123,1.401,3.123,3.123v60.152
		C440.838,358.213,439.437,359.614,437.715,359.614z M355.334,318.882h12.197v-3.546h-7.857v-4.539h7.035v-3.517h-7.035v-3.971
		h7.461v-3.546h-11.801V318.882z M335.588,318.797c1.078,0.142,2.667,0.284,4.907,0.284c3.744,0,6.808-0.794,8.822-2.468
		c1.844-1.56,3.177-4.084,3.177-7.744c0-3.375-1.248-5.73-3.233-7.205c-1.844-1.39-4.198-2.042-7.829-2.042
		c-2.185,0-4.255,0.142-5.844,0.397V318.797z M316.013,318.882h3.972v-5.758c0-3.12-0.057-5.815-0.171-8.34l0.086-0.028
		c0.936,2.241,2.184,4.709,3.318,6.751l4.085,7.375h4.538v-19.119h-3.971v5.588c0,2.865,0.085,5.446,0.368,7.971h-0.085
		c-0.851-2.156-1.985-4.539-3.12-6.553l-3.972-7.006h-5.049V318.882z M296.636,310.429c0,6.099,2.837,8.765,7.659,8.765
		c4.992,0,7.971-2.808,7.971-8.708v-10.722h-4.312v11.006c0,3.375-1.248,4.964-3.518,4.964c-2.213,0-3.461-1.674-3.461-4.964
		v-11.006h-4.34V310.429z M266.617,352.927l-1.05-19.119h-5.645l-2.042,6.354c-0.624,2.127-1.277,4.652-1.815,6.864h-0.085
		c-0.425-2.24-1.021-4.623-1.617-6.836l-1.872-6.383h-5.758l-1.22,19.119h4l0.34-7.262c0.142-2.383,0.227-5.333,0.34-7.914h0.057
		c0.454,2.496,1.106,5.22,1.73,7.46l2.042,7.403h3.375l2.326-7.46c0.737-2.241,1.532-4.964,2.127-7.403h0.085
		c0,2.78,0.085,5.56,0.17,7.857l0.284,7.318H266.617z M285.91,352.927l-5.928-19.119h-5.673l-5.843,19.119h4.481l1.362-4.907h5.475
		l1.475,4.907H285.91z M292.806,333.808h-4.34v19.119h4.34V333.808z M312.379,333.808h-3.971v5.589c0,2.864,0.085,5.446,0.368,7.971
		h-0.085c-0.851-2.156-1.985-4.539-3.12-6.553l-3.972-7.007h-5.049v19.119h3.972v-5.759c0-3.12-0.057-5.814-0.171-8.339l0.086-0.028
		c0.936,2.24,2.184,4.708,3.318,6.751l4.085,7.375h4.538V333.808z M329.373,333.808H314.68v3.631h5.134v15.488h4.34v-15.488h5.22
		V333.808z M344.038,349.381h-7.857v-4.538h7.035v-3.518h-7.035v-3.972h7.461v-3.546h-11.801v19.119h12.197V349.381z
		 M364.069,333.808h-3.971v5.589c0,2.864,0.085,5.446,0.368,7.971h-0.085c-0.851-2.156-1.985-4.539-3.12-6.553l-3.972-7.007h-5.049
		v19.119h3.972v-5.759c0-3.12-0.057-5.814-0.171-8.339l0.086-0.028c0.936,2.24,2.184,4.708,3.318,6.751l4.085,7.375h4.538V333.808z
		 M383.872,352.927l-5.929-19.119h-5.674l-5.843,19.119h4.481l1.361-4.907h5.476l1.475,4.907H383.872z M384.922,318.882
		c-0.369-0.737-0.965-3.234-1.561-5.39c-0.481-1.759-1.22-3.035-2.553-3.574v-0.085c1.646-0.596,3.376-2.269,3.376-4.708
		c0-1.759-0.624-3.092-1.759-4c-1.361-1.078-3.348-1.503-6.184-1.503c-2.298,0-4.369,0.17-5.759,0.397v18.863h4.283v-7.517h1.305
		c1.759,0.028,2.582,0.681,3.092,3.063c0.567,2.354,1.021,3.915,1.334,4.454H384.922z M402.256,333.808h-3.971v5.589
		c0,2.864,0.085,5.446,0.368,7.971h-0.085c-0.851-2.156-1.985-4.539-3.12-6.553l-3.972-7.007h-5.049v19.119h3.972v-5.759
		c0-3.12-0.057-5.814-0.171-8.339l0.086-0.028c0.936,2.24,2.184,4.708,3.318,6.751l4.085,7.375h4.538V333.808z M415.137,353.21
		c2.326,0,4.113-0.425,4.907-0.822l-0.652-3.375c-0.851,0.34-2.298,0.624-3.603,0.624c-3.857,0-6.127-2.411-6.127-6.241
		c0-4.255,2.667-6.325,6.099-6.325c1.532,0,2.752,0.34,3.631,0.709l0.88-3.433c-0.767-0.396-2.468-0.851-4.709-0.851
		c-5.787,0-10.438,3.631-10.438,10.155C405.124,349.098,408.527,353.21,415.137,353.21z M435.08,349.381h-7.857v-4.538h7.035v-3.518
		h-7.035v-3.972h7.461v-3.546h-11.801v19.119h12.197V349.381z M277.003,337.042h-0.057c-0.284,1.135-0.567,2.581-0.879,3.688
		l-1.135,4.057h4.227l-1.191-4.057C277.627,339.595,277.287,338.177,277.003,337.042z M347.898,309.01
		c0.028-3.971-2.297-6.07-6.013-6.07c-0.965,0-1.589,0.085-1.958,0.17v12.509c0.369,0.085,0.965,0.085,1.504,0.085
		C345.346,315.733,347.898,313.577,347.898,309.01z M270.249,363.672H256.85l13.398,29.94h13.398L270.249,363.672z M242.421,393.612
		h8.511h4.887l-13.398-29.94h-9.289h-4.11L242.421,393.612z M353.732,363.672h-13.398l13.398,29.94h13.398L353.732,363.672z
		 M325.904,363.672h-13.398l13.398,29.94h13.398L325.904,363.672z M409.387,363.672h-13.398l13.398,29.94h13.398L409.387,363.672z
		 M467.887,393.612v-29.94h-16.242l13.398,29.94H467.887z M212.706,363.672v29.94h15.286l-13.398-29.94H212.706z M298.077,363.672
		h-13.398l13.398,29.94h13.398L298.077,363.672z M390.312,393.612h4.647l-13.398-29.94h-13.398l13.398,29.94h7.401H390.312z
		 M437.215,363.672h-13.398l13.398,29.94h1.743h11.656L437.215,363.672z"></path>
</g>
<g id="Layer_2">
</g>
</svg>